<?xml version="1.0" ?><svg style="enable-background:new 0 0 50 50;" version="1.1" viewBox="0 0 50 50" xml:space="preserve" xmlns="http://www.w3.org/2000/svg" xmlns:xlink="http://www.w3.org/1999/xlink"><g id="Layer_1"><path d="M8,48.618l5-2.5l4,2l4-2l4,2l4-2l4,2l4-2l5,2.5V1H8V48.618z M10,3h30v42.382l-3-1.5l-4,2l-4-2l-4,2l-4-2l-4,2l-4-2l-3,1.5   V3z"/><path d="M25,16c2.757,0,5-2.243,5-5s-2.243-5-5-5s-5,2.243-5,5S22.243,16,25,16z M25,8c1.654,0,3,1.346,3,3s-1.346,3-3,3   s-3-1.346-3-3S23.346,8,25,8z"/><rect height="2" width="12" x="14" y="22"/><rect height="2" width="4" x="32" y="22"/><rect height="2" width="12" x="14" y="27"/><rect height="2" width="4" x="32" y="27"/><rect height="2" width="12" x="14" y="32"/><rect height="2" width="4" x="32" y="32"/><rect height="2" width="12" x="14" y="37"/><rect height="2" width="4" x="32" y="37"/></g><g/></svg>
